# xmcd
#
# Track frame offsets:
#	150
#	11088
#	21533
#	31092
#	44095
#	56032
#	67591
#	80048
#	92894
#	103110
#	114935
#	125228
#
# Disc length: 1981 seconds
#
# Revision: 1
# Processed by: cddbd v1.5.2PL0 Copyright (c) Steve Scherf et al.
# Submitted via: audiograbber 1.83.01
#
DISCID=a407bb0c
DTITLE=Johnny Horsepower - The Band In Black
DYEAR=2016
DGENRE=Country
TTITLE0=Hey Porter
TTITLE1=Let The The Train Blow The Whistle 
TTITLE2=The Story Of The Man In Black 
TTITLE3=Ring Of Fire 
TTITLE4=I Didn't Shiver 
TTITLE5=Wanted Man
TTITLE6=Man In Black
TTITLE7=Folsom Prison Blues
TTITLE8=She's Gone 
TTITLE9=Mama Tried
TTITLE10=San Quentin 
TTITLE11=Ghost Riders 
EXTD=
EXTT0=
EXTT1=
EXTT2=
EXTT3=
EXTT4=
EXTT5=
EXTT6=
EXTT7=
EXTT8=
EXTT9=
EXTT10=
EXTT11=
PLAYORDER=
